<?xml version="1.0" encoding="utf-8"?>
<!-- Generator: Adobe Illustrator 16.0.0, SVG Export Plug-In . SVG Version: 6.00 Build 0)  -->
<!DOCTYPE svg PUBLIC "-//W3C//DTD SVG 1.1//EN" "http://www.w3.org/Graphics/SVG/1.1/DTD/svg11.dtd">
<svg version="1.1" id="Layer_1" xmlns="http://www.w3.org/2000/svg" xmlns:xlink="http://www.w3.org/1999/xlink" x="0px" y="0px"
	 width="425px" height="425px" viewBox="0 0 425 425" enable-background="new 0 0 425 425" xml:space="preserve">
<path d="M172.208,325.544c-62.432,0-113.043-50.611-113.043-113.044S109.776,99.456,172.208,99.456
	c16.314,0,31.818,3.462,45.825,9.681c-17.516-10.107-37.839-15.891-59.515-15.891c-49.448,0-91.866,30.096-109.938,72.97
	c-15.761,9.395-26.322,26.604-26.322,46.285c0,19.681,10.562,36.888,26.322,46.284c18.072,42.873,60.49,72.969,109.938,72.969
	c21.676,0,41.998-5.784,59.514-15.891C204.025,322.082,188.521,325.544,172.208,325.544z"/>
<g>
	<path d="M127.252,203.651l7-40h10l-12.4,70h-9.899l-12.2-70h9.5L127.252,203.651z"/>
	<path d="M162.753,162.651c2.065,0,4.016,0.4,5.85,1.2c1.833,0.8,3.416,1.867,4.75,3.2c1.333,1.334,2.4,2.917,3.2,4.75
		c0.8,1.834,1.2,3.785,1.2,5.85v42c0,2.068-0.4,4.018-1.2,5.851c-0.8,1.835-1.867,3.417-3.2,4.75c-1.334,1.335-2.917,2.399-4.75,3.2
		c-1.834,0.8-3.784,1.199-5.85,1.199c-2.067,0-4.018-0.399-5.85-1.199c-1.835-0.801-3.418-1.865-4.75-3.2
		c-1.335-1.333-2.4-2.915-3.2-4.75c-0.8-1.833-1.2-3.782-1.2-5.851v-42c0-2.065,0.4-4.016,1.2-5.85c0.8-1.833,1.865-3.416,3.2-4.75
		c1.332-1.333,2.915-2.4,4.75-3.2C158.735,163.051,160.686,162.651,162.753,162.651z M167.553,177.651c0-1.4-0.484-2.583-1.45-3.55
		c-0.967-0.966-2.149-1.45-3.55-1.45c-1.334,0-2.5,0.484-3.5,1.45c-1,0.967-1.5,2.15-1.5,3.55v42c0,1.4,0.5,2.585,1.5,3.551
		c1,0.967,2.166,1.449,3.5,1.449c1.4,0,2.583-0.482,3.55-1.449c0.966-0.966,1.45-2.15,1.45-3.551V177.651z"/>
	<path d="M193.751,163.651v70h-10v-70H193.751z"/>
	<path d="M214.75,163.651c2.065,0,4.016,0.4,5.85,1.2c1.833,0.8,3.416,1.867,4.75,3.2c1.333,1.334,2.4,2.917,3.2,4.75
		c0.8,1.834,1.2,3.785,1.2,5.85v40c0,2.068-0.4,4-1.2,5.801c-0.8,1.8-1.867,3.385-3.2,4.75c-1.334,1.367-2.917,2.449-4.75,3.25
		c-1.834,0.8-3.784,1.199-5.85,1.199h-15v-70H214.75z M219.75,178.651c0-1.4-0.484-2.583-1.45-3.55
		c-0.967-0.966-2.149-1.45-3.55-1.45h-5v50h5c1.4,0,2.583-0.5,3.55-1.5c0.966-1,1.45-2.165,1.45-3.5V178.651z"/>
	<path d="M255.748,163.651h30v10l-20,50h20v10h-30v-10l20-50h-20V163.651z"/>
	<path d="M306.747,162.651c2.065,0,4.016,0.4,5.85,1.2c1.833,0.8,3.416,1.867,4.75,3.2c1.333,1.334,2.4,2.917,3.2,4.75
		c0.8,1.834,1.2,3.785,1.2,5.85v42c0,2.068-0.4,4.018-1.2,5.851c-0.8,1.835-1.867,3.417-3.2,4.75c-1.334,1.335-2.917,2.399-4.75,3.2
		c-1.834,0.8-3.784,1.199-5.85,1.199c-2.067,0-4.018-0.399-5.85-1.199c-1.835-0.801-3.418-1.865-4.75-3.2
		c-1.335-1.333-2.4-2.915-3.2-4.75c-0.8-1.833-1.2-3.782-1.2-5.851v-42c0-2.065,0.4-4.016,1.2-5.85c0.8-1.833,1.865-3.416,3.2-4.75
		c1.332-1.333,2.915-2.4,4.75-3.2C302.729,163.051,304.68,162.651,306.747,162.651z M311.547,177.651c0-1.4-0.484-2.583-1.45-3.55
		c-0.967-0.966-2.149-1.45-3.55-1.45c-1.334,0-2.5,0.484-3.5,1.45c-1,0.967-1.5,2.15-1.5,3.55v42c0,1.4,0.5,2.585,1.5,3.551
		c1,0.967,2.166,1.449,3.5,1.449c1.4,0,2.583-0.482,3.55-1.449c0.966-0.966,1.45-2.15,1.45-3.551V177.651z"/>
	<path d="M337.745,163.651l15,40v-40h10v70h-10l-15-40v40h-10v-70H337.745z"/>
	<path d="M398.744,163.651v10h-20v20h15v10h-15v20h20v10h-30v-70H398.744z"/>
</g>
<g>
	<path d="M278.366,243.768v25.2h-3.601v-25.2H278.366z"/>
	<path d="M284.126,243.768l5.399,14.4v-14.4h3.601v25.2h-3.601l-5.399-14.4v14.4h-3.601v-25.2H284.126z"/>
	<path d="M298.886,268.968v-21.6h-3.601v-3.601h10.8v3.601h-3.6v21.6H298.886z"/>
	<path d="M319.044,243.768v3.601h-7.199v7.199h5.399v3.601h-5.399v7.2h7.199v3.6h-10.8v-25.2H319.044z"/>
	<path d="M327.864,268.968l-3.06-11.7v11.7h-3.601v-25.2h5.4c0.743,0,1.445,0.145,2.105,0.433c0.66,0.287,1.23,0.672,1.71,1.151
		c0.48,0.48,0.864,1.051,1.152,1.71c0.288,0.66,0.432,1.362,0.432,2.106v2.7c0,1.151-0.323,2.184-0.972,3.096
		c-0.647,0.912-1.488,1.561-2.52,1.944l3.491,12.06H327.864z M324.805,253.668h1.943c0.48-0.048,0.876-0.24,1.188-0.576
		c0.312-0.336,0.468-0.743,0.468-1.224v-2.7c0-0.504-0.174-0.93-0.521-1.278c-0.349-0.348-0.774-0.521-1.278-0.521h-1.8V253.668z"/>
	<path d="M341.256,265.368h-4.068l-0.684,3.6h-3.601l4.464-25.2h3.601l4.355,25.2h-3.42L341.256,265.368z M340.571,261.768
		l-1.368-7.2l-1.331,7.2H340.571z"/>
	<path d="M353.244,250.968v-1.98c0-0.504-0.174-0.93-0.521-1.277c-0.349-0.348-0.774-0.522-1.278-0.522s-0.931,0.175-1.278,0.522
		s-0.521,0.773-0.521,1.277v14.761c0,0.504,0.174,0.93,0.521,1.277c0.348,0.349,0.774,0.522,1.278,0.522s0.93-0.174,1.278-0.522
		c0.348-0.348,0.521-0.773,0.521-1.277v-1.98h3.6v1.98c0,0.744-0.144,1.446-0.432,2.105c-0.288,0.66-0.672,1.23-1.152,1.71
		c-0.479,0.48-1.05,0.864-1.71,1.152s-1.362,0.432-2.105,0.432c-0.744,0-1.446-0.144-2.106-0.432s-1.229-0.672-1.71-1.152
		c-0.48-0.479-0.863-1.05-1.151-1.71c-0.288-0.659-0.433-1.361-0.433-2.105v-14.761c0-0.743,0.145-1.445,0.433-2.105
		s0.671-1.229,1.151-1.71c0.48-0.479,1.05-0.864,1.71-1.152s1.362-0.432,2.106-0.432c0.743,0,1.445,0.144,2.105,0.432
		s1.23,0.673,1.71,1.152c0.48,0.48,0.864,1.05,1.152,1.71s0.432,1.362,0.432,2.105v1.98H353.244z"/>
	<path d="M361.164,268.968v-21.6h-3.601v-3.601h10.8v3.601h-3.6v21.6H361.164z"/>
	<path d="M373.764,243.768v25.2h-3.601v-25.2H373.764z"/>
	<path d="M382.223,258.168l2.521-14.4h3.6l-4.464,25.2h-3.563l-4.393-25.2h3.42L382.223,258.168z"/>
	<path d="M401.303,243.768v3.601h-7.199v7.199h5.399v3.601h-5.399v7.2h7.199v3.6h-10.8v-25.2H401.303z"/>
</g>
</svg>
