<?xml version="1.0" encoding="utf-8"?>
<!-- Generator: Adobe Illustrator 16.0.0, SVG Export Plug-In . SVG Version: 6.00 Build 0)  -->
<!DOCTYPE svg PUBLIC "-//W3C//DTD SVG 1.1//EN" "http://www.w3.org/Graphics/SVG/1.1/DTD/svg11.dtd">
<svg version="1.1" id="Layer_1" xmlns="http://www.w3.org/2000/svg" xmlns:xlink="http://www.w3.org/1999/xlink" x="0px" y="0px"
	 width="425px" height="425px" viewBox="0 0 425 425" enable-background="new 0 0 425 425" xml:space="preserve">
<g>
	<path fill="#211F21" d="M104.489,209.334l8.049-45.996h11.499l-14.259,80.493H98.396l-14.029-80.493h10.924L104.489,209.334z"/>
	<path fill="#211F21" d="M145.312,162.188c2.375,0,4.618,0.46,6.727,1.38c2.108,0.92,3.928,2.147,5.462,3.68
		c1.533,1.534,2.759,3.354,3.68,5.462c0.92,2.109,1.379,4.353,1.379,6.727v48.295c0,2.379-0.459,4.621-1.379,6.73
		s-2.147,3.928-3.68,5.462c-1.534,1.534-3.354,2.757-5.462,3.679c-2.109,0.922-4.351,1.377-6.727,1.377
		c-2.377,0-4.62-0.455-6.727-1.377c-2.111-0.922-3.931-2.145-5.462-3.679c-1.536-1.534-2.76-3.353-3.68-5.462
		c-0.919-2.109-1.38-4.348-1.38-6.73v-48.295c0-2.375,0.46-4.618,1.38-6.727c0.92-2.107,2.145-3.928,3.68-5.462
		c1.531-1.533,3.351-2.76,5.462-3.68C140.692,162.648,142.935,162.188,145.312,162.188z M150.833,179.437
		c0-1.61-0.556-2.97-1.667-4.083c-1.112-1.11-2.471-1.667-4.082-1.667c-1.534,0-2.875,0.557-4.025,1.667
		c-1.15,1.112-1.725,2.473-1.725,4.083v48.295c0,1.609,0.575,2.974,1.725,4.086c1.15,1.111,2.491,1.664,4.025,1.664
		c1.609,0,2.97-0.553,4.082-1.664c1.111-1.112,1.667-2.473,1.667-4.086V179.437z"/>
	<path fill="#211F21" d="M180.957,163.338v80.493h-11.499v-80.493H180.957z"/>
	<path fill="#211F21" d="M205.103,163.338c2.373,0,4.618,0.46,6.728,1.38c2.108,0.92,3.928,2.147,5.462,3.68
		c1.533,1.534,2.76,3.354,3.68,5.462c0.92,2.109,1.381,4.353,1.381,6.727v45.996c0,2.378-0.461,4.601-1.381,6.673
		c-0.92,2.07-2.146,3.893-3.68,5.462s-3.354,2.813-5.462,3.737c-2.109,0.921-4.351,1.376-6.728,1.376h-17.248v-80.493H205.103z
		 M210.853,180.587c0-1.609-0.557-2.97-1.667-4.083c-1.112-1.11-2.472-1.667-4.083-1.667h-5.749v57.495h5.749
		c1.61,0,2.971-0.574,4.083-1.725c1.11-1.149,1.667-2.488,1.667-4.024V180.587L210.853,180.587z"/>
	<path fill="#211F21" d="M252.248,163.338h34.497v11.499l-22.998,57.495h22.998v11.499h-34.497v-11.499l22.998-57.495h-22.998
		V163.338L252.248,163.338z"/>
	<path fill="#211F21" d="M310.891,162.188c2.375,0,4.618,0.46,6.729,1.38c2.106,0.92,3.928,2.147,5.462,3.68
		c1.533,1.534,2.76,3.354,3.68,5.462c0.92,2.109,1.38,4.353,1.38,6.727v48.295c0,2.379-0.46,4.621-1.38,6.73
		s-2.146,3.928-3.68,5.462s-3.354,2.757-5.462,3.679c-2.109,0.922-4.351,1.377-6.729,1.377c-2.377,0-4.621-0.455-6.728-1.377
		c-2.108-0.922-3.931-2.145-5.462-3.679c-1.534-1.534-2.76-3.353-3.678-5.462c-0.922-2.109-1.383-4.348-1.383-6.73v-48.295
		c0-2.375,0.461-4.618,1.383-6.727c0.918-2.107,2.144-3.928,3.678-5.462c1.531-1.533,3.354-2.76,5.462-3.68
		C306.271,162.648,308.515,162.188,310.891,162.188z M316.411,179.437c0-1.61-0.559-2.97-1.668-4.083
		c-1.112-1.11-2.469-1.667-4.082-1.667c-1.534,0-2.874,0.557-4.024,1.667c-1.148,1.112-1.725,2.473-1.725,4.083v48.295
		c0,1.609,0.574,2.974,1.725,4.086c1.15,1.111,2.49,1.664,4.024,1.664c1.61,0,2.971-0.553,4.082-1.664
		c1.109-1.112,1.668-2.473,1.668-4.086V179.437z"/>
	<path fill="#211F21" d="M346.535,163.338l17.248,45.996v-45.996h11.499v80.493h-11.499l-17.248-45.996v45.996h-11.499v-80.493
		H346.535z"/>
	<path fill="#211F21" d="M416.679,163.338v11.499h-22.998v22.998h17.249v11.499h-17.249v22.998h22.998v11.499h-34.497v-80.493
		H416.679z"/>
</g>
<g>
	<path fill="#211F21" d="M278.258,255.463v28.979h-4.142v-28.979H278.258L278.258,255.463z"/>
	<path fill="#211F21" d="M284.879,255.463l6.208,16.561v-16.561h4.142v28.979h-4.142l-6.208-16.558v16.558h-4.141v-28.979H284.879z"
		/>
	<path fill="#211F21" d="M301.852,284.441v-24.838h-4.14v-4.142h12.417v4.142h-4.141v24.838H301.852z"/>
	<path fill="#211F21" d="M325.032,255.463v4.145h-8.279v8.276h6.208v4.144h-6.208v8.277h8.279v4.143h-12.419v-28.979h12.419V255.463
		z"/>
	<path fill="#211F21" d="M335.174,284.441l-3.521-13.455v13.455h-4.142v-28.979h6.207c0.854,0,1.662,0.169,2.421,0.501
		c0.76,0.33,1.413,0.771,1.968,1.32c0.552,0.553,0.991,1.21,1.323,1.969c0.331,0.758,0.497,1.564,0.497,2.42v3.105
		c0,1.322-0.372,2.512-1.118,3.561c-0.742,1.049-1.711,1.795-2.897,2.234l4.015,13.867h-4.753V284.441z M331.656,266.85h2.233
		c0.552-0.056,1.009-0.275,1.365-0.662c0.359-0.387,0.54-0.854,0.54-1.407v-3.104c0-0.58-0.2-1.07-0.598-1.469
		c-0.402-0.4-0.89-0.6-1.472-0.6h-2.068L331.656,266.85L331.656,266.85z"/>
	<path fill="#211F21" d="M350.573,280.303h-4.676l-0.788,4.139h-4.143l5.133-28.977h4.143l5.007,28.977h-3.933L350.573,280.303z
		 M349.786,276.161l-1.572-8.277l-1.53,8.277H349.786z"/>
	<path fill="#211F21" d="M364.358,263.743v-2.275c0-0.581-0.201-1.069-0.601-1.468c-0.399-0.4-0.888-0.6-1.468-0.6
		c-0.579,0-1.072,0.199-1.469,0.6c-0.399,0.4-0.601,0.887-0.601,1.468v16.974c0,0.58,0.202,1.07,0.601,1.467
		c0.398,0.404,0.89,0.6,1.469,0.6c0.581,0,1.07-0.199,1.468-0.6c0.402-0.399,0.601-0.887,0.601-1.467v-2.274h4.14v2.274
		c0,0.855-0.166,1.662-0.497,2.42c-0.331,0.759-0.773,1.414-1.324,1.968c-0.552,0.552-1.208,0.991-1.967,1.323
		c-0.759,0.33-1.566,0.498-2.42,0.498c-0.855,0-1.662-0.168-2.421-0.498c-0.759-0.332-1.414-0.771-1.967-1.323
		c-0.552-0.552-0.992-1.209-1.323-1.968c-0.329-0.758-0.498-1.562-0.498-2.42v-16.974c0-0.854,0.168-1.661,0.498-2.42
		c0.331-0.76,0.772-1.414,1.323-1.968c0.552-0.55,1.208-0.993,1.967-1.321c0.759-0.333,1.564-0.5,2.421-0.5
		c0.853,0,1.66,0.167,2.42,0.5c0.759,0.328,1.414,0.772,1.967,1.321c0.551,0.552,0.993,1.208,1.324,1.968
		c0.331,0.759,0.497,1.565,0.497,2.42v2.275H364.358L364.358,263.743z"/>
	<path fill="#211F21" d="M373.466,284.441v-24.838h-4.143v-4.142h12.42v4.142h-4.143v24.838H373.466z"/>
	<path fill="#211F21" d="M387.954,255.463v28.979h-4.141v-28.979H387.954L387.954,255.463z"/>
	<path fill="#211F21" d="M397.681,272.023l2.898-16.56h4.141l-5.133,28.978h-4.097l-5.055-28.978h3.934L397.681,272.023z"/>
	<path fill="#211F21" d="M419.621,255.463v4.145h-8.278v8.276h6.209v4.144h-6.209v8.277h8.278v4.143h-12.419v-28.979h12.419V255.463
		L419.621,255.463z"/>
</g>
<path fill="#8BAA2B" d="M168.019,91.319c-65.597,0-118.772,53.174-118.772,118.771c0,65.598,53.175,118.771,118.772,118.771
	c28.22,0,54.135-9.846,74.513-26.284c-31.316,31.948-78.416,46.663-124.783,34.487c-49.293-12.945-84.375-52.766-93.662-99.606
	c-15.555-15.931-22.61-39.384-16.543-62.487s23.736-40.066,45.11-46.297c31.103-36.237,81.224-53.683,130.517-40.739
	c11.298,2.967,21.845,7.355,31.511,12.907C200.357,94.715,184.586,91.319,168.019,91.319z"/>
</svg>
